<svg xmlns="http://www.w3.org/2000/svg" viewBox="0 0 256 256"><path d="M128 0C57.31 0 0 57.31 0 128s57.31 128 128 128 128-57.31 128-128S198.69 0 128 0zm0 240.45c-62.07 0-112.45-50.38-112.45-112.45S65.93 15.55 128 15.55s112.45 50.38 112.45 112.45S190.07 240.45 128 240.45z"/><path d="M152.41 128l22.56-22.56c12.39-12.39 12.39-32.48 0-44.87s-32.48-12.39-44.87 0L76.13 114.54c-1.55 1.55-1.55 4.06 0 5.61l54.01 54.01c12.39 12.39 32.48 12.39 44.87 0s12.39-32.48 0-44.87L152.41 128z"/><path d="M81.74 128l-22.56 22.56c-12.39 12.39-12.39 32.48 0 44.87s32.48 12.39 44.87 0l53.97-53.97c1.55-1.55 1.55-4.06 0-5.61L104.05 81.87c-12.39-12.39-32.48-12.39-44.87 0s-12.39 32.48 0 44.87L81.74 128z"/></svg>